<?xml version="1.0" encoding="UTF-8" standalone="no" ?>
<!DOCTYPE svg PUBLIC "-//W3C//DTD SVG 1.1//EN" "http://www.w3.org/Graphics/SVG/1.1/DTD/svg11.dtd">
<svg xmlns="http://www.w3.org/2000/svg" xmlns:xlink="http://www.w3.org/1999/xlink" version="1.1" width="500" height="500" viewBox="0 0 500 500" xml:space="preserve">
<desc>Created with Fabric.js 4.6.0</desc>
<defs>
</defs>
<g transform="matrix(1 0 0 1 282.48 158.97)" id="D8SWzdHOhivJw7vU_MPIw"  >
<path style="stroke: rgb(0,0,0); stroke-width: 1; stroke-dasharray: none; stroke-linecap: round; stroke-dashoffset: 0; stroke-linejoin: round; stroke-miterlimit: 10; fill: none; fill-rule: nonzero; opacity: 1;" vector-effect="non-scaling-stroke"  transform=" translate(-282.48, -158.97)" d="M 282.47763247863253 158.97435897435898 L 282.4796324786325 158.97435897435898" stroke-linecap="round" />
</g>
<g transform="matrix(1 0 0 1 239.74 223.08)" id="_sl4kjE_xsX0Z4TJnmFPC"  >
<path style="stroke: rgb(0,0,0); stroke-width: 1; stroke-dasharray: none; stroke-linecap: round; stroke-dashoffset: 0; stroke-linejoin: round; stroke-miterlimit: 10; fill: none; fill-rule: nonzero; opacity: 1;" vector-effect="non-scaling-stroke"  transform=" translate(-239.74, -223.08)" d="M 239.74258974358972 223.07692307692307 L 239.74458974358973 223.07692307692307" stroke-linecap="round" />
</g>
<g transform="matrix(1.97 0 0 1.97 239.49 201.45)" id="wE7pmy2GMMFZ1h1iIR5bU"  >
<linearGradient id="SVGID_1" gradientUnits="userSpaceOnUse" gradientTransform="matrix(1 0 0 1 -50 -50)"  x1="0" y1="49.99999999999999" x2="100.00000000000003" y2="49.99999999999999">
<stop offset="0%" style="stop-color:#ffffff;stop-opacity: 1"/>
<stop offset="50%" style="stop-color:#7e7e7e;stop-opacity: 1"/>
<stop offset="100%" style="stop-color:#000000;stop-opacity: 1"/>
</linearGradient>
<filter id="SVGID_0" y="-20%" height="140%" x="-46%" width="192%" >
	<feGaussianBlur in="SourceAlpha" stdDeviation="0"></feGaussianBlur>
	<feOffset dx="-26" dy="0" result="oBlur" ></feOffset>
	<feFlood flood-color="rgb(0,0,0)" flood-opacity="1"/>
	<feComposite in2="oBlur" operator="in" />
	<feMerge>
		<feMergeNode></feMergeNode>
		<feMergeNode in="SourceGraphic"></feMergeNode>
	</feMerge>
</filter>
<path style="stroke: rgb(160,120,54); stroke-width: 1; stroke-dasharray: none; stroke-linecap: butt; stroke-dashoffset: 0; stroke-linejoin: miter; stroke-miterlimit: 4; fill: url(#SVGID_1); fill-rule: nonzero; opacity: 1;filter: url(#SVGID_0);" vector-effect="non-scaling-stroke"  transform=" translate(0, 0)" d="M 0 -50 C 27.6 -50 50 -27.6 50 0 C 50 27.6 27.6 50 0 50 C -27.6 50 -50 27.6 -50 0 C -50 -27.6 -27.6 -50 0 -50 z" stroke-linecap="round" />
</g>
<g transform="matrix(1 0 0 1 280.56 177.81)" style="" id="uqYhNCdzWiMwM_2qwOIB7"  >
		<text xml:space="preserve" font-family="Open Sans" font-size="20" font-style="normal" font-weight="normal" line-height="1.16" style="stroke: none; stroke-width: 1; stroke-dasharray: none; stroke-linecap: butt; stroke-dashoffset: 0; stroke-linejoin: miter; stroke-miterlimit: 4; fill: rgb(0,0,0); fill-rule: nonzero; opacity: 1; white-space: pre;" ><tspan x="-75" y="6.28" >karate</tspan></text>
</g>
<g transform="matrix(1 0 0 1 207.26 84.62)" id="rDZPYUvZbmbGZ34zSG4cJ"  >
<path style="stroke: rgb(0,0,0); stroke-width: 1; stroke-dasharray: none; stroke-linecap: round; stroke-dashoffset: 0; stroke-linejoin: round; stroke-miterlimit: 10; fill: none; fill-rule: nonzero; opacity: 1;" vector-effect="non-scaling-stroke"  transform=" translate(-207.26, -84.62)" d="M 211.53846153846155 107.6933076923077 Q 211.53846153846155 107.6923076923077 211.53846153846155 107.26495726495727 Q 211.53846153846155 106.83760683760684 211.53846153846155 106.41025641025641 Q 211.53846153846155 105.98290598290599 211.11111111111111 105.12820512820514 Q 210.68376068376068 104.27350427350427 210.25641025641025 104.27350427350427 Q 209.82905982905982 104.27350427350427 209.82905982905982 103.84615384615384 Q 209.82905982905982 103.41880341880342 209.82905982905982 102.991452991453 Q 209.82905982905982 102.56410256410257 209.40170940170938 101.7094017094017 Q 208.97435897435895 100.85470085470085 208.97435897435895 100.42735042735043 Q 208.97435897435895 100 208.97435897435895 99.57264957264957 Q 208.97435897435895 99.14529914529915 208.97435897435895 98.71794871794873 Q 208.97435897435895 98.2905982905983 208.54700854700855 97.86324786324786 Q 208.11965811965814 97.43589743589743 208.11965811965814 97.008547008547 Q 208.11965811965814 96.58119658119658 208.11965811965814 96.15384615384616 Q 208.11965811965814 95.72649572649573 207.6923076923077 95.72649572649573 Q 207.26495726495727 95.72649572649573 207.26495726495727 95.2991452991453 Q 207.26495726495727 94.87179487179488 207.26495726495727 94.44444444444444 Q 207.26495726495727 94.01709401709401 207.26495726495727 93.58974358974359 Q 207.26495726495727 93.16239316239316 207.26495726495727 92.3076923076923 Q 207.26495726495727 91.45299145299145 206.83760683760684 91.02564102564102 Q 206.4102564102564 90.5982905982906 206.4102564102564 90.17094017094017 Q 206.4102564102564 89.74358974358974 206.4102564102564 89.31623931623932 Q 206.4102564102564 88.88888888888889 206.4102564102564 88.46153846153845 Q 206.4102564102564 88.03418803418803 206.4102564102564 87.60683760683762 Q 206.4102564102564 87.17948717948718 206.4102564102564 86.75213675213675 Q 206.4102564102564 86.32478632478632 205.98290598290598 85.89743589743588 Q 205.55555555555554 85.47008547008546 205.55555555555554 85.04273504273505 Q 205.55555555555554 84.61538461538461 205.55555555555554 83.76068376068376 Q 205.55555555555554 82.90598290598291 205.55555555555554 82.47863247863248 Q 205.55555555555554 82.05128205128204 205.1282051282051 81.19658119658119 Q 204.70085470085468 80.34188034188034 204.70085470085468 79.91452991452991 Q 204.70085470085468 79.48717948717949 204.70085470085468 78.63247863247864 Q 204.70085470085468 77.77777777777777 204.70085470085468 77.35042735042734 Q 204.70085470085468 76.92307692307692 204.70085470085468 76.4957264957265 Q 204.70085470085468 76.06837606837607 204.70085470085468 75.64102564102564 Q 204.70085470085468 75.21367521367522 204.70085470085468 74.78632478632478 Q 204.70085470085468 74.35897435897435 204.70085470085468 73.93162393162393 Q 204.70085470085468 73.5042735042735 204.70085470085468 73.07692307692307 Q 204.70085470085468 72.64957264957265 204.27350427350427 72.22222222222223 Q 203.84615384615387 71.7948717948718 203.84615384615387 70.08547008547009 Q 203.84615384615387 68.37606837606837 203.84615384615387 67.52136752136752 Q 203.84615384615387 66.66666666666666 203.84615384615387 65.8119658119658 Q 203.84615384615387 64.95726495726495 203.84615384615387 64.52991452991452 Q 203.84615384615387 64.1025641025641 203.84615384615387 63.675213675213676 Q 203.84615384615387 63.24786324786325 203.41880341880344 62.39316239316239 L 202.990452991453 61.537461538461535" stroke-linecap="round" />
</g>
<g transform="matrix(1 0 0 1 229.49 52.19)" id="PFTTVBUhpERenp9zTjG2M"  >
<path style="stroke: rgb(0,0,0); stroke-width: 1; stroke-dasharray: none; stroke-linecap: round; stroke-dashoffset: 0; stroke-linejoin: round; stroke-miterlimit: 10; fill: none; fill-rule: nonzero; opacity: 1;" vector-effect="non-scaling-stroke"  transform=" translate(-229.49, -52.19)" d="M 202.991452991453 60.68476068376068 Q 202.991452991453 60.68376068376068 202.991452991453 58.547008547008545 Q 202.991452991453 56.41025641025641 202.991452991453 55.98290598290598 Q 202.991452991453 55.55555555555556 202.991452991453 55.128205128205124 Q 202.991452991453 54.70085470085469 202.991452991453 54.273504273504265 Q 202.991452991453 53.84615384615384 202.991452991453 53.418803418803414 Q 202.991452991453 52.99145299145299 202.991452991453 52.56410256410256 Q 202.991452991453 52.136752136752136 202.991452991453 51.70940170940171 Q 202.991452991453 51.282051282051285 202.991452991453 50.85470085470085 Q 202.991452991453 50.42735042735042 202.991452991453 49.99999999999999 Q 202.991452991453 49.57264957264957 203.41880341880344 48.29059829059828 Q 203.84615384615387 47.008547008547 204.27350427350427 47.008547008547 Q 204.70085470085468 47.008547008547 204.70085470085468 46.58119658119657 Q 204.70085470085468 46.153846153846146 204.70085470085468 45.72649572649572 Q 204.70085470085468 45.299145299145295 204.70085470085468 44.87179487179487 Q 204.70085470085468 44.44444444444444 204.70085470085468 44.01709401709401 Q 204.70085470085468 43.58974358974358 204.70085470085468 43.16239316239315 Q 204.70085470085468 42.735042735042725 204.70085470085468 42.3076923076923 Q 204.70085470085468 41.880341880341874 204.70085470085468 40.59829059829059 Q 204.70085470085468 39.316239316239304 204.70085470085468 38.46153846153845 Q 204.70085470085468 37.6068376068376 204.70085470085468 37.179487179487175 Q 204.70085470085468 36.75213675213675 205.1282051282051 36.32478632478632 Q 205.55555555555554 35.897435897435884 205.55555555555554 35.47008547008546 Q 205.55555555555554 35.04273504273503 205.55555555555554 34.615384615384606 Q 205.55555555555554 34.18803418803418 205.55555555555554 33.760683760683754 Q 205.55555555555554 33.33333333333333 205.55555555555554 32.905982905982896 Q 205.55555555555554 32.47863247863246 205.1282051282051 31.196581196581185 Q 204.70085470085468 29.914529914529904 201.7094017094017 23.504273504273495 Q 198.71794871794873 17.094017094017087 197.86324786324786 15.384615384615376 Q 197.008547008547 13.675213675213666 197.008547008547 12.82051282051281 Q 197.008547008547 11.965811965811955 197.008547008547 10.683760683760672 Q 197.008547008547 9.40170940170939 197.008547008547 8.547008547008534 Q 197.008547008547 7.692307692307679 196.58119658119656 5.9829059829059705 Q 196.15384615384613 4.273504273504262 196.15384615384613 3.8461538461538343 Q 196.15384615384613 3.4188034188034067 196.15384615384613 3.8461538461538343 Q 196.15384615384613 4.273504273504262 197.008547008547 5.128205128205117 Q 197.86324786324786 5.982905982905972 198.2905982905983 6.410256410256398 Q 198.71794871794873 6.837606837606824 199.14529914529916 7.692307692307679 Q 199.5726495726496 8.547008547008534 200.42735042735043 9.40170940170939 Q 201.28205128205127 10.256410256410245 205.1282051282051 15.811965811965802 Q 208.97435897435895 21.36752136752136 209.82905982905982 22.64957264957264 Q 210.68376068376068 23.93162393162392 211.53846153846155 24.786324786324776 Q 212.3931623931624 25.64102564102563 213.24786324786325 28.632478632478623 Q 214.1025641025641 31.623931623931615 215.3846153846154 34.18803418803418 Q 216.66666666666669 36.75213675213675 217.52136752136752 38.03418803418803 Q 218.37606837606836 39.316239316239304 218.8034188034188 40.59829059829059 Q 219.23076923076923 41.880341880341874 219.65811965811966 42.3076923076923 Q 220.0854700854701 42.735042735042725 220.0854700854701 43.589743589743584 Q 220.0854700854701 44.44444444444444 221.36752136752136 45.299145299145295 Q 222.64957264957263 46.153846153846146 225.64102564102564 49.57264957264957 Q 228.63247863247864 52.99145299145299 233.76068376068378 62.39316239316239 Q 238.8888888888889 71.7948717948718 239.31623931623932 71.7948717948718 Q 239.74358974358972 71.7948717948718 239.74358974358972 72.22222222222223 Q 239.74358974358972 72.64957264957265 240.5982905982906 73.5042735042735 Q 241.45299145299145 74.35897435897435 241.8803418803419 74.78632478632478 Q 242.30769230769232 75.21367521367522 242.73504273504275 75.64102564102564 Q 243.1623931623932 76.06837606837607 243.5897435897436 76.4957264957265 Q 244.017094017094 76.92307692307692 244.44444444444443 77.77777777777777 Q 244.87179487179486 78.63247863247862 245.72649572649573 80.34188034188034 Q 246.5811965811966 82.05128205128204 248.71794871794873 83.33333333333333 Q 250.85470085470087 84.61538461538461 251.70940170940173 85.04273504273505 Q 252.5641025641026 85.47008547008546 252.991452991453 86.32478632478632 Q 253.4188034188034 87.17948717948718 254.27350427350427 87.60683760683762 Q 255.12820512820514 88.03418803418803 255.12820512820514 89.31623931623932 Q 255.12820512820514 90.5982905982906 255.55555555555557 91.45299145299145 Q 255.982905982906 92.3076923076923 256.41025641025647 92.73504273504273 Q 256.83760683760687 93.16239316239316 257.2649572649573 93.58974358974359 Q 257.6923076923077 94.01709401709401 258.1196581196581 94.01709401709401 Q 258.54700854700855 94.01709401709401 258.54700854700855 94.44444444444444 Q 258.54700854700855 94.87179487179488 258.974358974359 95.2991452991453 Q 259.4017094017094 95.72649572649573 259.8290598290598 96.15384615384616 Q 260.2564102564103 96.58119658119658 260.2564102564103 97.008547008547 Q 260.2564102564103 97.43589743589743 260.68376068376074 97.43589743589743 Q 261.11111111111114 97.43589743589743 261.11111111111114 97.86324786324786 Q 261.11111111111114 98.2905982905983 261.11111111111114 98.71794871794873 Q 261.11111111111114 99.14529914529915 261.965811965812 100 L 262.8215128205128 100.85570085470086" stroke-linecap="round" />
</g>
<g transform="matrix(1 0 0 1 409.4 206.84)" id="xs4-VDRvtce0LrvQu6uHy"  >
<path style="stroke: rgb(0,0,0); stroke-width: 1; stroke-dasharray: none; stroke-linecap: round; stroke-dashoffset: 0; stroke-linejoin: round; stroke-miterlimit: 10; fill: none; fill-rule: nonzero; opacity: 1;" vector-effect="non-scaling-stroke"  transform=" translate(0, 0)" d="M -72.22272 -23.93162 C -72.22205 -23.93162 -71.93682 -23.93162 -71.36702 -23.93162 C -70.79722 -23.93162 -70.36986999999999 -23.93162 -70.08497 -23.93162 C -69.80007 -23.93162 -68.94537 -23.93162 -67.52087 -23.93162 C -66.09637000000001 -23.93162 -65.09922 -23.93162 -64.52942 -23.93162 C -63.95962 -23.93162 -63.10492 -23.93162 -61.965320000000006 -23.93162 C -60.825720000000004 -23.93162 -59.97102 -23.93162 -59.40122000000001 -23.93162 C -58.83142000000001 -23.93162 -58.40407000000001 -23.93162 -58.11917000000001 -23.93162 C -57.83427000000001 -23.93162 -57.406920000000014 -23.93162 -56.83712000000001 -23.93162 C -56.26732000000001 -23.93162 -55.69752000000001 -23.93162 -55.12772000000001 -23.93162 C -54.55792000000001 -23.93162 -53.70322000000001 -23.93162 -52.563620000000014 -23.93162 C -48.005220000000016 -23.93162 -45.29866000000001 -23.93162 -44.44396000000002 -23.93162 C -43.58926000000002 -23.93162 -42.59211000000002 -23.93162 -41.45251000000002 -23.93162 C -40.31291000000002 -23.93162 -38.88841000000002 -23.93162 -37.17901000000002 -23.93162 C -35.46961000000002 -23.93162 -33.61776000000002 -23.93162 -31.62345000000002 -23.93162 C -29.62915000000002 -23.93162 -27.492400000000018 -23.64672 -25.21319000000002 -23.076919999999998 C -22.93399000000002 -22.507119999999997 -21.367040000000017 -22.079769999999996 -20.51234000000002 -21.794869999999996 C -19.65764000000002 -21.509969999999996 -18.66049000000002 -21.082619999999995 -17.52089000000002 -20.512819999999998 C -16.381290000000018 -19.943019999999997 -15.38414000000002 -19.658119999999997 -14.529440000000019 -19.658119999999997 C -13.67474000000002 -19.658119999999997 -13.104940000000019 -19.658119999999997 -12.820040000000018 -19.658119999999997 C -12.535140000000018 -19.658119999999997 -11.965340000000019 -19.658119999999997 -11.110640000000018 -19.658119999999997 C -10.255940000000018 -19.658119999999997 -9.686140000000018 -19.658119999999997 -9.401240000000017 -19.658119999999997 C -9.116340000000017 -19.658119999999997 -8.546540000000018 -19.658119999999997 -7.691840000000017 -19.658119999999997 C -6.837140000000017 -19.658119999999997 -5.555090000000017 -19.658119999999997 -3.8456900000000167 -19.658119999999997 C -2.1362900000000167 -19.658119999999997 -0.7117900000000166 -19.515669999999997 0.4278099999999836 -19.230769999999996 C 1.5674099999999835 -18.945869999999996 2.279659999999984 -18.803419999999996 2.5645599999999837 -18.803419999999996 C 2.8494599999999837 -18.803419999999996 3.276809999999984 -18.803419999999996 3.8466099999999837 -18.803419999999996 C 4.416409999999984 -18.803419999999996 4.843759999999984 -18.803419999999996 5.128659999999984 -18.803419999999996 C 5.413559999999984 -18.803419999999996 6.1258099999999835 -18.803419999999996 7.265409999999984 -18.803419999999996 C 8.405009999999985 -18.803419999999996 9.544609999999984 -18.803419999999996 10.684209999999984 -18.803419999999996 C 11.823809999999984 -18.803419999999996 12.820959999999985 -18.803419999999996 13.675659999999985 -18.803419999999996 C 14.530359999999984 -18.803419999999996 15.242609999999985 -18.803419999999996 15.812409999999986 -18.803419999999996 C 16.382209999999986 -18.803419999999996 16.809559999999987 -18.803419999999996 17.094459999999984 -18.803419999999996 C 17.379359999999984 -18.803419999999996 17.664259999999985 -18.803419999999996 17.949159999999985 -18.803419999999996 C 18.234059999999985 -18.803419999999996 18.518959999999986 -18.945869999999996 18.803859999999986 -19.230769999999996 C 19.088759999999986 -19.515669999999997 19.373659999999987 -19.800569999999997 19.658559999999987 -20.085469999999997 C 19.943459999999988 -20.370369999999998 20.79815999999999 -20.655269999999998 22.222659999999987 -20.94017 C 23.647159999999985 -21.22507 24.929209999999987 -21.50997 26.06880999999999 -21.79487 C 27.20840999999999 -22.07977 28.205559999999988 -22.22222 29.06025999999999 -22.22222 C 29.91495999999999 -22.22222 30.769659999999988 -22.22222 31.62435999999999 -22.22222 C 32.47905999999999 -22.22222 33.19130999999999 -22.22222 33.76110999999999 -22.22222 C 34.33090999999999 -22.22222 34.90070999999999 -22.22222 35.47050999999999 -22.22222 C 36.04030999999999 -22.22222 36.75255999999999 -22.22222 37.60725999999999 -22.22222 C 38.46195999999999 -22.22222 39.17420999999999 -22.22222 39.74400999999999 -22.22222 C 40.31380999999999 -22.22222 40.88360999999999 -22.07977 41.45340999999999 -21.79487 C 42.02320999999999 -21.50997 42.59300999999999 -21.36752 43.16280999999999 -21.36752 C 43.732609999999994 -21.36752 44.15995999999999 -21.36752 44.44485999999999 -21.36752 C 44.72975999999999 -21.36752 45.01465999999999 -21.36752 45.29955999999999 -21.36752 C 45.58445999999999 -21.36752 45.86935999999999 -21.36752 46.154259999999994 -21.36752 C 46.439159999999994 -21.36752 46.724059999999994 -21.36752 47.008959999999995 -21.36752 C 47.293859999999995 -21.36752 47.578759999999996 -21.36752 47.863659999999996 -21.36752 C 48.148559999999996 -21.36752 49.00326 -21.36752 50.42775999999999 -21.36752 C 51.852259999999994 -21.36752 52.99185999999999 -21.36752 53.84655999999999 -21.36752 C 54.70125999999999 -21.36752 55.69840999999999 -21.22507 56.83800999999999 -20.94017 C 57.97760999999999 -20.655269999999998 59.25965999999999 -20.227919999999997 60.68415999999999 -19.658119999999997 C 62.10865999999999 -19.088319999999996 63.10580999999999 -18.660969999999995 63.67560999999999 -18.37607 C 64.24540999999999 -18.091169999999998 64.67276 -17.663819999999998 64.95765999999999 -17.09402 C 65.24255999999998 -16.52422 65.52745999999999 -16.23932 65.81235999999998 -16.23932 C 66.09725999999998 -16.23932 66.38215999999998 -16.09687 66.66705999999998 -15.811969999999999 C 66.95195999999997 -15.527069999999998 67.23685999999998 -15.384619999999998 67.52175999999997 -15.384619999999998 C 67.80665999999997 -15.384619999999998 68.51890999999998 -15.384619999999998 69.65850999999998 -15.384619999999998 C 70.79810999999998 -15.384619999999998 71.51035999999998 -15.384619999999998 71.79525999999998 -15.384619999999998 C 72.08015999999998 -15.384619999999998 72.22260999999999 -15.242169999999998 72.22260999999999 -14.957269999999998 C 72.22260999999999 -14.672369999999997 72.08015999999999 -14.245019999999997 71.79525999999998 -13.675219999999998 C 71.51035999999999 -13.105419999999997 70.94055999999999 -12.535619999999998 70.08585999999998 -11.965819999999997 C 69.23115999999999 -11.396019999999996 68.23400999999998 -10.826219999999998 67.09440999999998 -10.256419999999997 C 65.95480999999998 -9.686619999999996 65.24255999999998 -9.259269999999997 64.95765999999998 -8.974369999999997 C 64.67275999999998 -8.689469999999996 64.24540999999998 -8.404569999999996 63.67560999999998 -8.119669999999998 C 63.10580999999998 -7.834769999999997 62.39355999999998 -7.549869999999998 61.53885999999998 -7.264969999999997 C 60.68415999999998 -6.980069999999997 59.68700999999998 -6.695169999999997 58.54740999999998 -6.410269999999997 C 57.40780999999998 -6.125369999999997 56.268209999999975 -5.840469999999997 55.12860999999998 -5.555569999999997 C 53.98900999999998 -5.270669999999996 52.84940999999998 -4.843319999999997 51.70980999999998 -4.273519999999997 C 50.57020999999998 -3.703719999999997 49.857959999999984 -3.133919999999997 49.573059999999984 -2.564119999999997 C 49.28815999999998 -1.994319999999997 48.86080999999999 -1.7094199999999968 48.291009999999986 -1.7094199999999968 C 47.721209999999985 -1.7094199999999968 47.29385999999999 -1.5669699999999969 47.00895999999999 -1.282069999999997 C 46.72405999999999 -0.997169999999997 46.15425999999999 -0.5698199999999969 45.299559999999985 -0.0000199999999970224 C 44.444859999999984 0.569780000000003 43.59015999999998 0.854680000000003 42.73545999999999 0.854680000000003 C 41.88075999999999 0.854680000000003 40.74115999999999 1.139580000000003 39.31665999999999 1.709380000000003 C 37.89215999999999 2.279180000000003 36.75255999999999 2.706530000000003 35.897859999999994 2.991430000000003 C 35.04315999999999 3.276330000000003 34.330909999999996 3.561230000000003 33.761109999999995 3.846130000000003 C 33.191309999999994 4.1310300000000035 32.47906 4.415930000000003 31.624359999999996 4.700830000000003 C 30.769659999999995 4.985730000000004 30.057409999999997 5.128180000000003 29.487609999999997 5.128180000000003 C 28.917809999999996 5.128180000000003 28.348009999999995 5.270630000000003 27.778209999999998 5.555530000000003 C 27.208409999999997 5.840430000000003 25.92636 6.125330000000003 23.932059999999996 6.410230000000003 C 21.937759999999997 6.695130000000003 20.798159999999996 6.837580000000003 20.513259999999995 6.837580000000003 C 20.228359999999995 6.837580000000003 19.801009999999994 6.837580000000003 19.231209999999997 6.837580000000003 C 18.661409999999997 6.837580000000003 18.234059999999996 6.837580000000003 17.94916 6.837580000000003 C 17.66426 6.837580000000003 17.37936 6.837580000000003 17.094459999999998 6.837580000000003 C 16.809559999999998 6.837580000000003 16.667109999999997 6.552680000000002 16.667109999999997 5.982880000000002 C 16.667109999999997 5.413080000000003 16.382209999999997 5.128180000000002 15.812409999999998 5.128180000000002 C 15.242609999999997 5.128180000000002 14.672809999999998 5.413080000000003 14.103009999999998 5.982880000000002 C 13.533209999999997 6.552680000000002 12.393609999999997 7.122480000000002 10.684209999999997 7.692280000000002 C 8.974809999999996 8.262080000000003 7.407859999999997 8.831880000000002 5.983359999999997 9.401680000000002 C 4.558859999999997 9.971480000000003 3.419259999999997 10.256380000000002 2.5645599999999966 10.256380000000002 C 1.7098599999999966 10.256380000000002 1.1400599999999965 10.256380000000002 0.8551599999999966 10.256380000000002 C 0.5702599999999967 10.256380000000002 0.2853599999999966 10.398830000000002 0.00045999999999657426 10.683730000000002 C -0.2844400000000034 10.968630000000003 -0.8542400000000034 11.253530000000003 -1.7089400000000035 11.538430000000002 C -2.5636400000000035 11.823330000000002 -3.1334400000000038 12.108230000000002 -3.4183400000000033 12.393130000000001 C -3.703240000000003 12.678030000000001 -3.988140000000003 12.820480000000002 -4.2730400000000035 12.820480000000002 C -4.557940000000004 12.820480000000002 -5.127740000000004 12.820480000000002 -5.982440000000004 12.820480000000002 C -6.837140000000004 12.820480000000002 -7.834290000000004 13.105380000000002 -8.973890000000004 13.675180000000001 C -10.113490000000004 14.244980000000002 -11.110640000000004 14.52988 -11.965340000000005 14.52988 C -12.820040000000004 14.52988 -13.532290000000005 14.67233 -14.102090000000004 14.957230000000001 C -14.671890000000005 15.242130000000001 -14.956790000000003 15.527030000000002 -14.956790000000003 15.81193 C -14.956790000000003 16.09683 -15.384140000000004 16.38173 -16.238840000000003 16.66663 C -17.093540000000004 16.95153 -17.948240000000002 17.378880000000002 -18.802940000000003 17.948680000000003 C -19.657640000000004 18.518480000000004 -20.654790000000002 18.803380000000004 -21.794390000000003 18.803380000000004 C -22.933990000000005 18.803380000000004 -23.931140000000003 18.945830000000004 -24.785840000000004 19.230730000000005 C -25.640540000000005 19.515630000000005 -26.495240000000003 19.800530000000006 -27.349940000000004 20.085430000000006 C -28.204640000000005 20.370330000000006 -29.059340000000002 20.512780000000006 -29.914040000000004 20.512780000000006 C -30.768740000000005 20.512780000000006 -31.338540000000002 20.512780000000006 -31.623440000000002 20.512780000000006 C -31.908340000000003 20.512780000000006 -32.19324 20.512780000000006 -32.47814 20.512780000000006 C -32.763040000000004 20.512780000000006 -33.047940000000004 20.370330000000006 -33.332840000000004 20.085430000000006 C -33.617740000000005 19.800530000000006 -33.902640000000005 19.088280000000005 -34.187540000000006 17.948680000000007 C -34.472440000000006 16.809080000000005 -34.61489 16.096830000000008 -34.61489 15.811930000000007 C -34.61489 15.527030000000007 -34.89979 15.527030000000007 -35.469590000000004 15.811930000000007 C -36.039390000000004 16.096830000000008 -37.03654 16.66663000000001 -38.461040000000004 17.521330000000006 C -39.885540000000006 18.376030000000007 -41.02514000000001 18.945830000000008 -41.87984 19.230730000000005 C -42.73454 19.515630000000005 -43.73169 19.800530000000006 -44.87129 20.085430000000006 C -46.01089 20.370330000000006 -46.865590000000005 20.655230000000007 -47.43539 20.940130000000007 C -48.00519 21.225030000000007 -48.432539999999996 21.367480000000008 -48.717439999999996 21.367480000000008 C -49.00234 21.367480000000008 -49.429689999999994 21.367480000000008 -49.999489999999994 21.367480000000008 C -50.569289999999995 21.367480000000008 -51.28153999999999 21.509930000000008 -52.136239999999994 21.794830000000008 C -52.990939999999995 22.07973000000001 -54.130539999999996 22.22218000000001 -55.55503999999999 22.22218000000001 C -56.97953999999999 22.22218000000001 -57.834239999999994 22.22218000000001 -58.11913999999999 22.22218000000001 C -58.40403999999999 22.22218000000001 -58.68893999999999 22.22218000000001 -58.97383999999999 22.22218000000001 C -59.25873999999999 22.22218000000001 -59.54363999999999 22.22218000000001 -59.82853999999999 22.22218000000001 C -60.11343999999999 22.22218000000001 -60.39833999999999 22.22218000000001 -60.68323999999999 22.22218000000001 C -60.96813999999999 22.22218000000001 -61.39548999999999 22.36463000000001 -61.96528999999999 22.64953000000001 C -62.53508999999999 22.93443000000001 -62.96243999999999 23.21933000000001 -63.24733999999999 23.50423000000001 C -63.53223999999999 23.78913000000001 -63.81713999999999 23.93158000000001 -64.10203999999999 23.93158000000001 C -64.38693999999998 23.93158000000001 -65.09919 23.93158000000001 -66.23879 23.93158000000001 C -67.37839 23.93158000000001 -68.37554 23.93158000000001 -69.23024 23.93158000000001 L -70.51329 23.93158000000001" stroke-linecap="round" />
</g>
<g transform="matrix(1 0 0 1 270.94 358.12)" id="2hkw3U3juSrbRxxL1LRnV"  >
<path style="stroke: rgb(0,0,0); stroke-width: 1; stroke-dasharray: none; stroke-linecap: round; stroke-dashoffset: 0; stroke-linejoin: round; stroke-miterlimit: 10; fill: none; fill-rule: nonzero; opacity: 1;" vector-effect="non-scaling-stroke"  transform=" translate(0, 0)" d="M -23.50477 -57.26546 C -23.50477 -57.26479 -23.50477 -57.406909999999996 -23.50477 -57.69181 C -23.50477 -57.97671 -23.50477 -57.97671 -23.50477 -57.69181 C -23.50477 -57.406909999999996 -23.50477 -57.122009999999996 -23.50477 -56.837109999999996 C -23.50477 -56.552209999999995 -23.50477 -56.267309999999995 -23.50477 -55.982409999999994 C -23.50477 -55.697509999999994 -23.50477 -55.12770999999999 -23.50477 -54.27300999999999 C -23.50477 -53.41830999999999 -23.50477 -52.13625999999999 -23.50477 -50.42685999999999 C -23.50477 -48.71745999999999 -23.50477 -47.292959999999994 -23.50477 -46.15335999999999 C -23.50477 -45.01375999999999 -23.50477 -43.87415999999999 -23.50477 -42.734559999999995 C -23.50477 -41.59495999999999 -23.50477 -39.743109999999994 -23.50477 -37.178999999999995 C -23.50477 -34.61489999999999 -23.50477 -32.47814999999999 -23.50477 -30.768739999999994 C -23.50477 -29.059339999999995 -23.50477 -28.062189999999994 -23.50477 -27.777289999999994 C -23.50477 -27.492389999999993 -23.50477 -27.207489999999993 -23.50477 -26.922589999999992 C -23.50477 -26.637689999999992 -23.50477 -26.35278999999999 -23.50477 -26.06788999999999 L -23.50477 -24.358489999999993 C -23.50477 -23.50378999999999 -23.50477 -22.221739999999993 -23.50477 -20.51233999999999 C -23.50477 -18.802939999999992 -23.50477 -17.52088999999999 -23.50477 -16.66618999999999 C -23.50477 -15.81148999999999 -23.50477 -14.814339999999989 -23.50477 -13.67473999999999 C -23.50477 -12.53513999999999 -23.50477 -11.68043999999999 -23.50477 -11.11063999999999 C -23.50477 -10.540839999999989 -23.36232 -9.258789999999989 -23.07742 -7.26448999999999 C -22.79252 -5.27018999999999 -22.65007 -3.8456899999999896 -22.65007 -2.9909899999999894 C -22.65007 -2.136289999999989 -22.50762 -0.8542399999999892 -22.22272 0.8551600000000108 C -21.93782 2.564560000000011 -21.652919999999998 3.704160000000011 -21.368019999999998 4.273960000000011 C -21.083119999999997 4.843760000000011 -20.940669999999997 5.271110000000011 -20.940669999999997 5.556010000000011 C -20.940669999999997 5.840910000000012 -20.655769999999997 6.4107100000000115 -20.085969999999996 7.265410000000012 C -19.516169999999995 8.120110000000011 -19.088819999999995 9.259710000000013 -18.803919999999998 10.68421000000001 C -18.519019999999998 12.108710000000011 -17.949219999999997 13.39076000000001 -17.09452 14.53036000000001 C -16.239819999999998 15.66996000000001 -15.81247 16.38221000000001 -15.81247 16.66711000000001 C -15.81247 16.952010000000012 -15.81247 17.949160000000013 -15.81247 19.658560000000012 C -15.81247 21.36796000000001 -15.81247 23.219810000000013 -15.81247 25.214120000000012 C -15.81247 27.20842000000001 -15.81247 29.34517000000001 -15.81247 31.624380000000013 C -15.81247 33.90358000000001 -15.67002 35.897880000000015 -15.385119999999999 37.60729000000001 C -15.100219999999998 39.316690000000015 -14.103069999999999 41.59589000000001 -12.393669999999998 44.44490000000001 C -10.684269999999998 47.29390000000001 -9.259769999999998 50.142910000000015 -8.120169999999998 52.99191000000001 C -6.980569999999998 55.84091000000001 -6.125869999999998 57.977660000000014 -5.556069999999998 59.40217000000001 C -4.986269999999998 60.826670000000014 -4.274019999999998 62.39362000000001 -3.419319999999998 64.10302000000001 C -2.564619999999998 65.81242000000002 -1.852369999999998 66.95202000000002 -1.282569999999998 67.52182000000002 C -0.712769999999998 68.09162000000002 -0.285419999999998 68.51897000000002 -0.0005199999999980776 68.80387000000002 C 0.2843800000000019 69.08877000000001 0.5692800000000019 69.23122000000002 0.8541800000000019 69.23122000000002 C 1.1390800000000019 69.23122000000002 1.1390800000000019 69.08877000000003 0.8541800000000019 68.80387000000002 C 0.569280000000002 68.51897000000002 -0.0005199999999980776 68.09162000000002 -0.8552199999999981 67.52182000000002 C -1.709919999999998 66.95202000000002 -2.564619999999998 65.95487000000001 -3.419319999999998 64.53037000000002 C -4.274019999999998 63.10587000000002 -5.271169999999998 61.25402000000002 -6.410769999999998 58.97481000000002 C -7.550369999999997 56.695610000000016 -8.547519999999999 54.55886000000002 -9.402219999999998 52.56455000000002 C -10.256919999999997 50.570250000000016 -10.826719999999998 47.436340000000015 -11.111619999999998 43.16284000000002 C -11.396519999999999 38.88934000000002 -11.68142 35.04318000000002 -11.966319999999998 31.624380000000016 C -12.251219999999998 28.205580000000015 -12.393669999999998 25.641470000000016 -12.393669999999998 23.932070000000017 C -12.393669999999998 22.22267000000002 -12.393669999999998 21.083070000000017 -12.393669999999998 20.513270000000016 C -12.393669999999998 19.943470000000016 -12.393669999999998 19.516120000000015 -12.393669999999998 19.231220000000015 C -12.393669999999998 18.946320000000014 -12.393669999999998 17.664270000000016 -12.393669999999998 15.385070000000015 C -12.393669999999998 13.105870000000015 -12.393669999999998 11.396470000000015 -12.393669999999998 10.256860000000014 C -12.393669999999998 9.117260000000014 -12.393669999999998 8.120110000000015 -12.393669999999998 7.2654100000000135 C -12.393669999999998 6.410710000000013 -12.393669999999998 5.840910000000013 -12.393669999999998 5.556010000000013 C -12.393669999999998 5.271110000000013 -12.393669999999998 4.986210000000013 -12.393669999999998 4.701310000000013 C -12.393669999999998 4.416410000000012 -12.393669999999998 4.131510000000013 -12.393669999999998 3.8466100000000125 C -12.393669999999998 3.5617100000000126 -12.251219999999998 3.4192600000000124 -11.966319999999998 3.4192600000000124 C -11.681419999999997 3.4192600000000124 -11.538969999999997 3.276810000000012 -11.538969999999997 2.9919100000000123 C -11.538969999999997 2.7070100000000124 -11.396519999999997 2.2796600000000122 -11.111619999999997 1.7098600000000124 C -10.826719999999996 1.1400600000000125 -10.399369999999998 0.28536000000001227 -9.829569999999997 -0.8542399999999875 C -9.259769999999996 -1.9938399999999874 -8.832419999999997 -3.2758899999999875 -8.547519999999997 -4.700389999999988 C -8.262619999999997 -6.124889999999988 -8.120169999999996 -7.122039999999988 -8.120169999999996 -7.6918399999999885 C -8.120169999999996 -8.26163999999999 -7.835269999999996 -8.973889999999988 -7.265469999999996 -9.828589999999988 C -6.695669999999996 -10.683289999999987 -6.410769999999996 -11.537989999999988 -6.410769999999996 -12.392689999999988 C -6.410769999999996 -13.247389999999987 -6.1258699999999955 -14.814339999999987 -5.556069999999996 -17.093539999999987 C -4.986269999999996 -19.372739999999986 -4.558919999999995 -20.939689999999988 -4.274019999999996 -21.794389999999986 C -3.989119999999996 -22.649089999999987 -3.4193199999999955 -24.073589999999985 -2.5646199999999957 -26.067889999999984 C -1.7099199999999957 -28.062189999999983 -1.1401199999999956 -29.344239999999985 -0.8552199999999957 -29.914039999999986 C -0.5703199999999957 -30.483839999999987 -0.1429699999999956 -31.338539999999988 0.42683000000000426 -32.47813999999998 C 0.9966300000000042 -33.61773999999998 1.7088800000000042 -34.61488999999998 2.5635800000000044 -35.46958999999998 C 3.4182800000000046 -36.32428999999998 3.8456300000000043 -37.03653999999998 3.8456300000000043 -37.60633999999998 C 3.8456300000000043 -38.17613999999998 4.272980000000004 -38.88838999999998 5.127680000000004 -39.74308999999998 C 5.9823800000000045 -40.59778999999998 6.6946300000000045 -41.31003999999998 7.264430000000004 -41.87983999999998 C 7.834230000000004 -42.44963999999998 8.119130000000004 -42.87698999999998 8.119130000000004 -43.16188999999998 C 8.119130000000004 -43.44678999999998 8.261580000000004 -44.01658999999998 8.546480000000004 -44.87128999999998 C 8.831380000000005 -45.72598999999998 9.258730000000003 -46.43823999999998 9.828530000000004 -47.00803999999998 C 10.398330000000005 -47.57783999999998 10.683230000000004 -48.14763999999998 10.683230000000004 -48.71743999999998 C 10.683230000000004 -49.28723999999998 10.968130000000004 -50.711739999999985 11.537930000000003 -52.99093999999998 C 12.107730000000004 -55.270139999999984 12.535080000000002 -57.12198999999998 12.819980000000003 -58.54649999999998 C 13.104880000000003 -59.97099999999998 13.247330000000003 -60.82569999999998 13.247330000000003 -61.11059999999998 C 13.247330000000003 -61.39549999999998 13.532230000000004 -61.96529999999998 14.102030000000003 -62.81999999999998 C 14.671830000000003 -63.67469999999998 15.099180000000002 -64.24449999999997 15.384080000000003 -64.52939999999998 C 15.668980000000003 -64.81429999999997 15.811430000000003 -65.09919999999998 15.811430000000003 -65.38409999999998 C 15.811430000000003 -65.66899999999997 16.096330000000002 -65.81144999999998 16.666130000000003 -65.81144999999998 C 17.235930000000003 -65.81144999999998 17.805730000000004 -66.09634999999997 18.37553 -66.66614999999997 C 18.945330000000002 -67.23594999999997 19.372680000000003 -67.52084999999997 19.657580000000003 -67.52084999999997 C 19.942480000000003 -67.52084999999997 20.084930000000004 -67.66329999999996 20.084930000000004 -67.94819999999997 C 20.084930000000004 -68.23309999999996 20.369830000000004 -68.37554999999998 20.939630000000005 -68.37554999999998 C 21.509430000000005 -68.37554999999998 22.079230000000006 -68.51799999999997 22.649030000000003 -68.80289999999998 L 23.504730000000002 -69.23124999999997" stroke-linecap="round" />
</g>
<g transform="matrix(1 0 0 1 89.39 217.95)" id="pyoGCcU3JX2rmXGFPJfA1"  >
<path style="stroke: rgb(0,0,0); stroke-width: 1; stroke-dasharray: none; stroke-linecap: round; stroke-dashoffset: 0; stroke-linejoin: round; stroke-miterlimit: 10; fill: none; fill-rule: nonzero; opacity: 1;" vector-effect="non-scaling-stroke"  transform=" translate(-89.39, -217.95)" d="M 139.74458974358978 188.88888888888889 Q 139.74358974358978 188.88888888888889 138.8888888888889 188.88888888888889 Q 138.03418803418805 188.88888888888889 136.32478632478634 188.88888888888889 Q 134.61538461538464 188.88888888888889 132.90598290598294 188.46153846153845 Q 131.19658119658123 188.03418803418802 130.7692307692308 188.03418803418802 Q 130.34188034188037 188.03418803418802 126.4957264957265 188.03418803418802 Q 122.64957264957265 188.03418803418802 121.7948717948718 188.03418803418802 Q 120.94017094017094 188.03418803418802 120.08547008547009 188.03418803418802 Q 119.23076923076924 188.03418803418802 118.37606837606839 188.03418803418802 Q 117.52136752136754 188.03418803418802 114.10256410256412 188.03418803418802 Q 110.6837606837607 188.03418803418802 109.82905982905984 188.03418803418802 Q 108.97435897435899 188.03418803418802 108.54700854700856 188.03418803418802 Q 108.11965811965813 188.03418803418802 107.26495726495727 188.03418803418802 Q 106.41025641025642 188.03418803418802 105.55555555555557 188.46153846153845 Q 104.70085470085472 188.88888888888889 104.27350427350429 188.88888888888889 Q 103.84615384615385 188.88888888888889 102.56410256410257 189.31623931623932 Q 101.28205128205128 189.74358974358972 100.42735042735043 189.74358974358972 Q 99.57264957264958 189.74358974358972 99.14529914529915 190.17094017094016 Q 98.71794871794872 190.5982905982906 98.2905982905983 190.5982905982906 Q 97.86324786324788 190.5982905982906 97.86324786324788 190.17094017094016 Q 97.86324786324788 189.74358974358972 97.86324786324788 186.75213675213672 Q 97.86324786324788 183.76068376068375 97.00854700854703 184.18803418803418 Q 96.15384615384617 184.6153846153846 95.72649572649574 185.47008547008545 Q 95.29914529914531 186.32478632478632 93.58974358974359 187.17948717948718 Q 91.88034188034187 188.03418803418802 90.5982905982906 188.46153846153845 Q 89.31623931623933 188.88888888888889 80.76923076923077 188.88888888888889 Q 72.22222222222221 188.88888888888889 70.51282051282051 188.88888888888889 Q 68.80341880341881 188.88888888888889 67.94871794871796 188.88888888888889 Q 67.0940170940171 188.88888888888889 65.38461538461539 188.88888888888889 Q 63.67521367521367 188.88888888888889 62.3931623931624 188.88888888888889 Q 61.11111111111113 188.88888888888889 58.97435897435899 188.88888888888889 Q 56.837606837606856 188.88888888888889 56.41025641025642 188.88888888888889 Q 55.98290598290599 188.88888888888889 55.55555555555556 188.88888888888889 Q 55.128205128205124 188.88888888888889 54.700854700854705 186.32478632478632 Q 54.27350427350429 183.76068376068375 54.27350427350429 182.47863247863245 Q 54.27350427350429 181.19658119658118 53.846153846153854 178.63247863247864 Q 53.41880341880342 176.06837606837607 52.99145299145299 176.4957264957265 Q 52.564102564102555 176.9230769230769 51.282051282051285 177.35042735042734 Q 50.000000000000014 177.77777777777777 45.72649572649574 178.63247863247864 Q 41.45299145299147 179.48717948717947 39.31623931623933 179.48717948717947 Q 37.1794871794872 179.48717948717947 35.042735042735046 179.48717948717947 Q 32.905982905982896 179.48717948717947 30.34188034188034 179.48717948717947 Q 27.777777777777786 179.48717948717947 24.78632478632479 179.48717948717947 Q 21.794871794871796 179.48717948717947 21.36752136752137 179.48717948717947 Q 20.940170940170944 179.48717948717947 20.512820512820518 179.48717948717947 Q 20.085470085470092 179.48717948717947 19.65811965811966 179.48717948717947 Q 19.230769230769226 179.48717948717947 18.8034188034188 178.63247863247864 Q 18.376068376068375 177.77777777777777 17.521367521367523 176.9230769230769 Q 16.66666666666667 176.06837606837607 16.239316239316246 176.06837606837607 Q 15.81196581196582 176.06837606837607 14.529914529914535 176.06837606837607 Q 13.24786324786325 176.06837606837607 12.393162393162392 175.64102564102564 Q 11.538461538461533 175.2136752136752 10.683760683760681 175.2136752136752 Q 9.82905982905983 175.2136752136752 9.401709401709404 174.35897435897436 Q 8.974358974358978 173.5042735042735 8.547008547008552 173.07692307692307 Q 8.119658119658126 172.64957264957263 7.692307692307693 171.79487179487177 Q 7.2649572649572605 170.94017094017093 8.11965811965812 170.94017094017093 Q 8.974358974358978 170.94017094017093 9.82905982905983 170.94017094017093 Q 10.683760683760681 170.94017094017093 14.957264957264954 173.07692307692307 Q 19.230769230769226 175.2136752136752 22.22222222222222 178.63247863247864 Q 25.213675213675216 182.05128205128204 32.05128205128206 184.6153846153846 Q 38.8888888888889 187.17948717948718 48.2905982905983 191.88034188034186 Q 57.69230769230769 196.58119658119656 62.82051282051282 199.57264957264957 Q 67.94871794871794 202.56410256410257 71.7948717948718 204.7008547008547 Q 75.64102564102565 206.83760683760684 80.76923076923077 210.68376068376068 Q 85.8974358974359 214.52991452991452 88.46153846153847 214.52991452991452 Q 91.02564102564104 214.52991452991452 92.73504273504274 215.38461538461536 Q 94.44444444444444 216.23931623931622 96.58119658119658 217.5213675213675 Q 98.71794871794872 218.8034188034188 108.11965811965813 226.4957264957265 Q 117.52136752136754 234.18803418803418 129.05982905982907 241.88034188034186 Q 140.5982905982906 249.57264957264957 145.2991452991453 252.56410256410257 Q 150 255.55555555555557 151.7094017094017 256.83760683760687 Q 153.4188034188034 258.11965811965814 153.84615384615384 258.11965811965814 Q 154.27350427350427 258.11965811965814 154.7008547008547 258.11965811965814 Q 155.12820512820514 258.11965811965814 156.4102564102564 258.54700854700855 Q 157.69230769230768 258.974358974359 158.97435897435898 259.8290598290599 Q 160.25641025641028 260.68376068376074 160.68376068376068 261.11111111111114 Q 161.1111111111111 261.53846153846155 161.53846153846152 261.53846153846155 Q 161.96581196581195 261.53846153846155 162.82051282051282 261.965811965812 Q 163.67521367521368 262.3931623931624 164.52991452991452 262.8205128205128 Q 165.38461538461536 263.2478632478633 166.23931623931622 263.2478632478633 Q 167.0940170940171 263.2478632478633 167.52136752136752 263.2478632478633 Q 167.94871794871796 263.2478632478633 168.3760683760684 263.2478632478633 Q 168.80341880341882 263.2478632478633 168.80341880341882 263.67521367521374 Q 168.80341880341882 264.10256410256414 169.23076923076923 264.10256410256414 Q 169.65811965811963 264.10256410256414 170.08547008547006 264.10256410256414 Q 170.5128205128205 264.10256410256414 170.94017094017093 264.52991452991455 L 171.36852136752137 264.958264957265" stroke-linecap="round" />
</g>
<g transform="matrix(1 0 0 1 175.21 307.69)" id="rhTbgeLpqfkfUU85hvs5k"  >
<radialGradient id="SVGID_2" gradientUnits="userSpaceOnUse" gradientTransform="matrix(1 0 0 1 -194.45 -23.08)"  cx="194.44544444444443" cy="23.07792307692307" r="194.44544444444443" fx="194.44544444444443" fy="23.07792307692307">
<stop offset="0%" style="stop-color:#ffffff;stop-opacity: 1"/>
<stop offset="50%" style="stop-color:#7e7e7e;stop-opacity: 1"/>
<stop offset="100%" style="stop-color:#000000;stop-opacity: 1"/>
</radialGradient>
<path style="stroke: rgb(0,0,0); stroke-width: 1; stroke-dasharray: none; stroke-linecap: round; stroke-dashoffset: 0; stroke-linejoin: round; stroke-miterlimit: 10; fill: url(#SVGID_2); fill-rule: nonzero; opacity: 1;" vector-effect="non-scaling-stroke"  transform=" translate(0, 0)" d="M -194.44544 -23.07792 C -194.44476999999998 -23.07725 -193.16239 -22.792019999999997 -190.59829 -22.22222 C -188.03419 -21.65242 -185.32763 -21.22507 -182.47862999999998 -20.940170000000002 C -179.62963 -20.65527 -166.52420999999998 -19.51567 -143.16239 -17.52137 C -132.41002999999998 -16.60349 -74.29110999999999 -9.797520000000002 -25.119669999999985 -3.9466400000000004 C 5.946250000000013 -0.2501300000000004 33.440730000000016 3.0651599999999997 43.162390000000016 4.27351 L 194.44544000000002 23.077930000000002" stroke-linecap="round" />
</g>
<g transform="matrix(1 0 0 1 325.21 330.77)" id="TpBo7NebbSmNAWun4D_7j"  >
<path style="stroke: rgb(0,0,0); stroke-width: 1; stroke-dasharray: none; stroke-linecap: round; stroke-dashoffset: 0; stroke-linejoin: round; stroke-miterlimit: 10; fill: none; fill-rule: nonzero; opacity: 1;" vector-effect="non-scaling-stroke"  transform=" translate(-325.21, -330.77)" d="M 325.21267521367525 330.76923076923083 L 325.2146752136752 330.76923076923083" stroke-linecap="round" />
</g>
<g transform="matrix(1 0 0 1 325.21 330.77)" id="xLiFUSTMkZp6KvAWZRwgC"  >
<path style="stroke: rgb(0,0,0); stroke-width: 1; stroke-dasharray: none; stroke-linecap: round; stroke-dashoffset: 0; stroke-linejoin: round; stroke-miterlimit: 10; fill: none; fill-rule: nonzero; opacity: 1;" vector-effect="non-scaling-stroke"  transform=" translate(-325.21, -330.77)" d="M 325.21267521367525 330.76923076923083 L 325.2146752136752 330.76923076923083" stroke-linecap="round" />
</g>
<g transform="matrix(1 0 0 1 325.21 330.77)" id="C2EXlkUnTIjUg84T0hsRZ"  >
<path style="stroke: rgb(0,0,0); stroke-width: 1; stroke-dasharray: none; stroke-linecap: round; stroke-dashoffset: 0; stroke-linejoin: round; stroke-miterlimit: 10; fill: none; fill-rule: nonzero; opacity: 1;" vector-effect="non-scaling-stroke"  transform=" translate(-325.21, -330.77)" d="M 325.21267521367525 330.76923076923083 L 325.2146752136752 330.76923076923083" stroke-linecap="round" />
</g>
<g transform="matrix(1 0 0 1 324.36 327.35)" id="miYcOvPrUeFfssNRjorkw"  >
<path style="stroke: rgb(0,0,0); stroke-width: 1; stroke-dasharray: none; stroke-linecap: round; stroke-dashoffset: 0; stroke-linejoin: round; stroke-miterlimit: 10; fill: none; fill-rule: nonzero; opacity: 1;" vector-effect="non-scaling-stroke"  transform=" translate(-324.36, -327.35)" d="M 324.3579743589744 327.35042735042737 L 324.35997435897434 327.35042735042737" stroke-linecap="round" />
</g>
<g transform="matrix(1 0 0 1 324.36 327.35)" id="CY_gQpnKpaAwKd28dSJzG"  >
<path style="stroke: rgb(0,0,0); stroke-width: 1; stroke-dasharray: none; stroke-linecap: round; stroke-dashoffset: 0; stroke-linejoin: round; stroke-miterlimit: 10; fill: none; fill-rule: nonzero; opacity: 1;" vector-effect="non-scaling-stroke"  transform=" translate(-324.36, -327.35)" d="M 324.3579743589744 327.35042735042737 L 324.35997435897434 327.35042735042737" stroke-linecap="round" />
</g>
<g transform="matrix(1 0 0 1 324.36 327.35)" id="FYYaUfpIHXQqf7dpqIJFe"  >
<path style="stroke: rgb(0,0,0); stroke-width: 1; stroke-dasharray: none; stroke-linecap: round; stroke-dashoffset: 0; stroke-linejoin: round; stroke-miterlimit: 10; fill: none; fill-rule: nonzero; opacity: 1;" vector-effect="non-scaling-stroke"  transform=" translate(-324.36, -327.35)" d="M 324.3579743589744 327.35042735042737 L 324.35997435897434 327.35042735042737" stroke-linecap="round" />
</g>
<g transform="matrix(1 0 0 1 324.36 327.35)" id="sFAZopssxgv3OGDFsR2NE"  >
<path style="stroke: rgb(0,0,0); stroke-width: 1; stroke-dasharray: none; stroke-linecap: round; stroke-dashoffset: 0; stroke-linejoin: round; stroke-miterlimit: 10; fill: none; fill-rule: nonzero; opacity: 1;" vector-effect="non-scaling-stroke"  transform=" translate(-324.36, -327.35)" d="M 324.3579743589744 327.35042735042737 L 324.35997435897434 327.35042735042737" stroke-linecap="round" />
</g>
<g transform="matrix(1 0 0 1 324.36 327.35)" id="WJkQd2BZi3UiiOJolKzs0"  >
<path style="stroke: rgb(0,0,0); stroke-width: 1; stroke-dasharray: none; stroke-linecap: round; stroke-dashoffset: 0; stroke-linejoin: round; stroke-miterlimit: 10; fill: none; fill-rule: nonzero; opacity: 1;" vector-effect="non-scaling-stroke"  transform=" translate(-324.36, -327.35)" d="M 324.3579743589744 327.35042735042737 L 324.35997435897434 327.35042735042737" stroke-linecap="round" />
</g>
<g transform="matrix(1 0 0 1 250 198.29)" id="ubz4TFVmUyx14zeB0vkO0"  >
<path style="stroke: rgb(0,0,0); stroke-width: 1; stroke-dasharray: none; stroke-linecap: round; stroke-dashoffset: 0; stroke-linejoin: round; stroke-miterlimit: 10; fill: none; fill-rule: nonzero; opacity: 1;" vector-effect="non-scaling-stroke"  transform=" translate(-250, -198.29)" d="M 249.999 198.2905982905983 L 250.001 198.2905982905983" stroke-linecap="round" />
</g>
<g transform="matrix(1 0 0 1 250 198.29)" id="pm8sE2INpXVKP1DfVJOaf"  >
<path style="stroke: rgb(0,0,0); stroke-width: 1; stroke-dasharray: none; stroke-linecap: round; stroke-dashoffset: 0; stroke-linejoin: round; stroke-miterlimit: 10; fill: none; fill-rule: nonzero; opacity: 1;" vector-effect="non-scaling-stroke"  transform=" translate(-250, -198.29)" d="M 249.999 198.2905982905983 L 250.001 198.2905982905983" stroke-linecap="round" />
</g>
<g transform="matrix(1 0 0 1 250 198.29)" id="JmAgfibTbweUU8FCIa6I3"  >
<path style="stroke: rgb(0,0,0); stroke-width: 1; stroke-dasharray: none; stroke-linecap: round; stroke-dashoffset: 0; stroke-linejoin: round; stroke-miterlimit: 10; fill: none; fill-rule: nonzero; opacity: 1;" vector-effect="non-scaling-stroke"  transform=" translate(-250, -198.29)" d="M 249.999 198.2905982905983 L 250.001 198.2905982905983" stroke-linecap="round" />
</g>
<g transform="matrix(1 0 0 1 250 198.29)" id="SXBSnyhsJiohfjN75cnmN"  >
<path style="stroke: rgb(0,0,0); stroke-width: 1; stroke-dasharray: none; stroke-linecap: round; stroke-dashoffset: 0; stroke-linejoin: round; stroke-miterlimit: 10; fill: none; fill-rule: nonzero; opacity: 1;" vector-effect="non-scaling-stroke"  transform=" translate(-250, -198.29)" d="M 249.999 198.2905982905983 L 250.001 198.2905982905983" stroke-linecap="round" />
</g>
<g transform="matrix(1 0 0 1 250 198.29)" id="sv95YtputglIU_F0gCC9U"  >
<path style="stroke: rgb(0,0,0); stroke-width: 1; stroke-dasharray: none; stroke-linecap: round; stroke-dashoffset: 0; stroke-linejoin: round; stroke-miterlimit: 10; fill: none; fill-rule: nonzero; opacity: 1;" vector-effect="non-scaling-stroke"  transform=" translate(-250, -198.29)" d="M 249.999 198.2905982905983 L 250.001 198.2905982905983" stroke-linecap="round" />
</g>
<g transform="matrix(1 0 0 1 250 198.29)" id="4OVNA2GtvDc93MCuvYOYi"  >
<path style="stroke: rgb(0,0,0); stroke-width: 1; stroke-dasharray: none; stroke-linecap: round; stroke-dashoffset: 0; stroke-linejoin: round; stroke-miterlimit: 10; fill: none; fill-rule: nonzero; opacity: 1;" vector-effect="non-scaling-stroke"  transform=" translate(-250, -198.29)" d="M 249.999 198.2905982905983 L 250.001 198.2905982905983" stroke-linecap="round" />
</g>
</svg>